<svg id="visual" viewBox="0 0 960 540" width="960" height="540" xmlns="http://www.w3.org/2000/svg" xmlns:xlink="http://www.w3.org/1999/xlink" version="1.1"><rect x="0" y="0" width="960" height="540" fill="#00192c"></rect><path d="M0 275L13.3 274.2C26.7 273.3 53.3 271.7 80 285.3C106.7 299 133.3 328 160 341.3C186.7 354.7 213.3 352.3 240 339.8C266.7 327.3 293.3 304.7 320 303.3C346.7 302 373.3 322 400 335C426.7 348 453.3 354 480 350C506.7 346 533.3 332 560 328.8C586.7 325.7 613.3 333.3 640 337.7C666.7 342 693.3 343 720 342.2C746.7 341.3 773.3 338.7 800 329.5C826.7 320.3 853.3 304.7 880 295.8C906.7 287 933.3 285 946.7 284L960 283L960 541L946.7 541C933.3 541 906.7 541 880 541C853.3 541 826.7 541 800 541C773.3 541 746.7 541 720 541C693.3 541 666.7 541 640 541C613.3 541 586.7 541 560 541C533.3 541 506.7 541 480 541C453.3 541 426.7 541 400 541C373.3 541 346.7 541 320 541C293.3 541 266.7 541 240 541C213.3 541 186.7 541 160 541C133.3 541 106.7 541 80 541C53.3 541 26.7 541 13.3 541L0 541Z" fill="#ffa59e"></path><path d="M0 381L13.3 373.3C26.7 365.7 53.3 350.3 80 337.2C106.7 324 133.3 313 160 309.8C186.7 306.7 213.3 311.3 240 310.2C266.7 309 293.3 302 320 309.8C346.7 317.7 373.3 340.3 400 343C426.7 345.7 453.3 328.3 480 325.5C506.7 322.7 533.3 334.3 560 341.8C586.7 349.3 613.3 352.7 640 348.7C666.7 344.7 693.3 333.3 720 325.2C746.7 317 773.3 312 800 307.5C826.7 303 853.3 299 880 307.5C906.7 316 933.3 337 946.7 347.5L960 358L960 541L946.7 541C933.3 541 906.7 541 880 541C853.3 541 826.7 541 800 541C773.3 541 746.7 541 720 541C693.3 541 666.7 541 640 541C613.3 541 586.7 541 560 541C533.3 541 506.7 541 480 541C453.3 541 426.7 541 400 541C373.3 541 346.7 541 320 541C293.3 541 266.7 541 240 541C213.3 541 186.7 541 160 541C133.3 541 106.7 541 80 541C53.3 541 26.7 541 13.3 541L0 541Z" fill="#ff9894"></path><path d="M0 347L13.3 345C26.7 343 53.3 339 80 341.8C106.7 344.7 133.3 354.3 160 355.5C186.7 356.7 213.3 349.3 240 343.2C266.7 337 293.3 332 320 340.2C346.7 348.3 373.3 369.7 400 376.3C426.7 383 453.3 375 480 371.8C506.7 368.7 533.3 370.3 560 369.8C586.7 369.3 613.3 366.7 640 371C666.7 375.3 693.3 386.7 720 382.5C746.7 378.3 773.3 358.7 800 347.7C826.7 336.7 853.3 334.3 880 334.8C906.7 335.3 933.3 338.7 946.7 340.3L960 342L960 541L946.7 541C933.3 541 906.7 541 880 541C853.3 541 826.7 541 800 541C773.3 541 746.7 541 720 541C693.3 541 666.7 541 640 541C613.3 541 586.7 541 560 541C533.3 541 506.7 541 480 541C453.3 541 426.7 541 400 541C373.3 541 346.7 541 320 541C293.3 541 266.7 541 240 541C213.3 541 186.7 541 160 541C133.3 541 106.7 541 80 541C53.3 541 26.7 541 13.3 541L0 541Z" fill="#ff8b8c"></path><path d="M0 391L13.3 395.3C26.7 399.7 53.3 408.3 80 412.8C106.7 417.3 133.3 417.7 160 412.7C186.7 407.7 213.3 397.3 240 386.7C266.7 376 293.3 365 320 359.3C346.7 353.7 373.3 353.3 400 362.7C426.7 372 453.3 391 480 402.3C506.7 413.7 533.3 417.3 560 412.5C586.7 407.7 613.3 394.3 640 392.8C666.7 391.3 693.3 401.7 720 401.5C746.7 401.3 773.3 390.7 800 384.2C826.7 377.7 853.3 375.3 880 372.7C906.7 370 933.3 367 946.7 365.5L960 364L960 541L946.7 541C933.3 541 906.7 541 880 541C853.3 541 826.7 541 800 541C773.3 541 746.7 541 720 541C693.3 541 666.7 541 640 541C613.3 541 586.7 541 560 541C533.3 541 506.7 541 480 541C453.3 541 426.7 541 400 541C373.3 541 346.7 541 320 541C293.3 541 266.7 541 240 541C213.3 541 186.7 541 160 541C133.3 541 106.7 541 80 541C53.3 541 26.7 541 13.3 541L0 541Z" fill="#ff7d84"></path><path d="M0 398L13.3 399.8C26.7 401.7 53.3 405.3 80 406.8C106.7 408.3 133.3 407.7 160 412.2C186.7 416.7 213.3 426.3 240 427.3C266.7 428.3 293.3 420.7 320 415.2C346.7 409.7 373.3 406.3 400 405C426.7 403.7 453.3 404.3 480 410C506.7 415.7 533.3 426.3 560 421.8C586.7 417.3 613.3 397.7 640 396.2C666.7 394.7 693.3 411.3 720 416.5C746.7 421.7 773.3 415.3 800 413.3C826.7 411.3 853.3 413.7 880 418.7C906.7 423.7 933.3 431.3 946.7 435.2L960 439L960 541L946.7 541C933.3 541 906.7 541 880 541C853.3 541 826.7 541 800 541C773.3 541 746.7 541 720 541C693.3 541 666.7 541 640 541C613.3 541 586.7 541 560 541C533.3 541 506.7 541 480 541C453.3 541 426.7 541 400 541C373.3 541 346.7 541 320 541C293.3 541 266.7 541 240 541C213.3 541 186.7 541 160 541C133.3 541 106.7 541 80 541C53.3 541 26.7 541 13.3 541L0 541Z" fill="#ff6e7d"></path><path d="M0 438L13.3 435C26.7 432 53.3 426 80 423.7C106.7 421.3 133.3 422.7 160 420.3C186.7 418 213.3 412 240 411.5C266.7 411 293.3 416 320 419.3C346.7 422.7 373.3 424.3 400 423.8C426.7 423.3 453.3 420.7 480 418.5C506.7 416.3 533.3 414.7 560 414.8C586.7 415 613.3 417 640 418C666.7 419 693.3 419 720 418.2C746.7 417.3 773.3 415.7 800 414.8C826.7 414 853.3 414 880 420.2C906.7 426.3 933.3 438.7 946.7 444.8L960 451L960 541L946.7 541C933.3 541 906.7 541 880 541C853.3 541 826.7 541 800 541C773.3 541 746.7 541 720 541C693.3 541 666.7 541 640 541C613.3 541 586.7 541 560 541C533.3 541 506.7 541 480 541C453.3 541 426.7 541 400 541C373.3 541 346.7 541 320 541C293.3 541 266.7 541 240 541C213.3 541 186.7 541 160 541C133.3 541 106.7 541 80 541C53.3 541 26.7 541 13.3 541L0 541Z" fill="#ff5e77"></path><path d="M0 463L13.3 462.5C26.7 462 53.3 461 80 459.2C106.7 457.3 133.3 454.7 160 451.7C186.7 448.7 213.3 445.3 240 450.3C266.7 455.3 293.3 468.7 320 468C346.7 467.3 373.3 452.7 400 450C426.7 447.3 453.3 456.7 480 457C506.7 457.3 533.3 448.7 560 447.3C586.7 446 613.3 452 640 453.5C666.7 455 693.3 452 720 454.8C746.7 457.7 773.3 466.3 800 469.3C826.7 472.3 853.3 469.7 880 465.3C906.7 461 933.3 455 946.7 452L960 449L960 541L946.7 541C933.3 541 906.7 541 880 541C853.3 541 826.7 541 800 541C773.3 541 746.7 541 720 541C693.3 541 666.7 541 640 541C613.3 541 586.7 541 560 541C533.3 541 506.7 541 480 541C453.3 541 426.7 541 400 541C373.3 541 346.7 541 320 541C293.3 541 266.7 541 240 541C213.3 541 186.7 541 160 541C133.3 541 106.7 541 80 541C53.3 541 26.7 541 13.3 541L0 541Z" fill="#ff4b72"></path><path d="M0 485L13.3 484.8C26.7 484.7 53.3 484.3 80 481.3C106.7 478.3 133.3 472.7 160 474.2C186.7 475.7 213.3 484.3 240 489.8C266.7 495.3 293.3 497.7 320 494.7C346.7 491.7 373.3 483.3 400 482.3C426.7 481.3 453.3 487.7 480 488.5C506.7 489.3 533.3 484.7 560 481.7C586.7 478.7 613.3 477.3 640 476.2C666.7 475 693.3 474 720 472.7C746.7 471.3 773.3 469.7 800 471.7C826.7 473.7 853.3 479.3 880 482.8C906.7 486.3 933.3 487.7 946.7 488.3L960 489L960 541L946.7 541C933.3 541 906.7 541 880 541C853.3 541 826.7 541 800 541C773.3 541 746.7 541 720 541C693.3 541 666.7 541 640 541C613.3 541 586.7 541 560 541C533.3 541 506.7 541 480 541C453.3 541 426.7 541 400 541C373.3 541 346.7 541 320 541C293.3 541 266.7 541 240 541C213.3 541 186.7 541 160 541C133.3 541 106.7 541 80 541C53.3 541 26.7 541 13.3 541L0 541Z" fill="#ff346e"></path><path d="M0 495L13.3 497C26.7 499 53.3 503 80 505.3C106.7 507.7 133.3 508.3 160 510.5C186.7 512.7 213.3 516.3 240 517.7C266.7 519 293.3 518 320 516.2C346.7 514.3 373.3 511.7 400 509C426.7 506.3 453.3 503.7 480 501.3C506.7 499 533.3 497 560 496.8C586.7 496.7 613.3 498.3 640 500.7C666.7 503 693.3 506 720 504.8C746.7 503.7 773.3 498.3 800 500.5C826.7 502.7 853.3 512.3 880 516.8C906.7 521.3 933.3 520.7 946.7 520.3L960 520L960 541L946.7 541C933.3 541 906.7 541 880 541C853.3 541 826.7 541 800 541C773.3 541 746.7 541 720 541C693.3 541 666.7 541 640 541C613.3 541 586.7 541 560 541C533.3 541 506.7 541 480 541C453.3 541 426.7 541 400 541C373.3 541 346.7 541 320 541C293.3 541 266.7 541 240 541C213.3 541 186.7 541 160 541C133.3 541 106.7 541 80 541C53.3 541 26.7 541 13.3 541L0 541Z" fill="#ff006a"></path></svg>