<svg xmlns="http://www.w3.org/2000/svg" version="1.1" xmlns:xlink="http://www.w3.org/1999/xlink" xmlns:svgjs="http://svgjs.dev/svgjs" width="1920" height="1080" preserveAspectRatio="none" viewBox="0 0 1920 1080"><g mask="url(&quot;#SvgjsMask1034&quot;)" fill="none"><rect width="1920" height="1080" x="0" y="0" fill="rgba(34, 34, 34, 1)"></rect><path d="M270 150C206.75 160.31 180 213.66 180 270C180 316.86 213.51 348.97 270 356.4C393.51 372.65 414.03 352.7 540 317.37C568.05 309.5 578.03 294.65 578.03 270C578.03 241.62 571.06 223.4 540 211.3C417.05 163.4 386.75 130.96 270 150" stroke="rgba(68, 68, 68, 1)" stroke-width="2"></path><path d="M1275 0C1321.38 11.89 1312.5 69.23 1350 69.23C1387.5 69.23 1378.62 11.89 1425 0C1513.62 -22.72 1522.5 0 1620 0C1755 0 1755 0 1890 0C2025 0 2092.5 -67.5 2160 0C2227.5 67.5 2160 135 2160 270C2160 405 2160 405 2160 540C2160 675 2160 675 2160 810C2160 945 2227.5 1012.5 2160 1080C2092.5 1147.5 2025 1080 1890 1080C1755 1080 1755 1080 1620 1080C1485 1080 1485 1080 1350 1080C1215 1080 1215 1080 1080 1080C945 1080 945 1080 810 1080C675 1080 675 1080 540 1080C405 1080 405 1080 270 1080C135 1080 67.5 1147.5 0 1080C-67.5 1012.5 0 945 0 810C0 675 0 675 0 540C0 405 0 405 0 270C0 135 -67.5 67.5 0 0C67.5 -67.5 135 0 270 0C405 0 405 0 540 0C675 0 675 0 810 0C945 0 945 0 1080 0C1177.5 0 1186.38 -22.72 1275 0" stroke="rgba(68, 68, 68, 1)" stroke-width="2"></path><path d="M810 468.43C761.27 468.43 761.63 498.9 723.91 540C626.63 646 657.28 706.16 540 762.63C430.33 815.44 394.54 739.42 270 758.57C240.48 763.11 231.88 783.1 231.88 810C231.88 842.57 235.74 872.74 270 877.5C389.8 894.17 405.12 866.35 540 852.86C675.12 839.35 676.63 843.04 810 823.5C822.88 821.61 825.53 820.98 832.5 810C915.53 679.23 996.95 645.44 990 540C985.7 474.66 894.31 468.43 810 468.43" stroke="rgba(68, 68, 68, 1)" stroke-width="2"></path><path d="M1350 753.9C1304.97 753.9 1261.84 774.57 1261.84 810C1261.84 858 1303.81 920.77 1350 920.77C1399.32 920.77 1452.86 857 1452.86 810C1452.86 773.57 1400.48 753.9 1350 753.9" stroke="rgba(68, 68, 68, 1)" stroke-width="2"></path><path d="M270 25C150.03 79.32 174.88 145.25 86.25 270C39.88 335.25 23.4 405 0 405C-19.72 405 0 337.5 0 270C0 135 -67.5 67.5 0 0C67.5 -67.5 135 0 270 0C405 0 405 0 540 0C675 0 675 0 810 0C945 0 945 0 1080 0C1083.75 0 1087.5 -2.05 1087.5 0C1087.5 3.82 1082.62 5.29 1080 11.74C1027.67 140.29 1055.36 161.88 977.59 270C920.36 349.57 890.93 387.11 810 387.11C738.69 387.11 730.33 338.37 673.1 270C595.33 177.1 635.3 122.49 540 64.57C433.75 -0.01 376.9 -23.4 270 25" stroke="rgba(68, 68, 68, 1)" stroke-width="2"></path><path d="M1308.46 270C1321.93 249.37 1331.36 258.86 1350 242.31C1483.38 123.86 1480.28 118.66 1612.5 0C1615.28 -2.49 1616.25 0 1620 0C1755 0 1755 0 1890 0C2018.57 0 2028.77 -14.8 2147.14 0C2163.77 2.08 2159.15 15.85 2160 33.75C2165.58 150.85 2160 151.88 2160 270C2160 405 2160 405 2160 540C2160 675 2160 675 2160 810C2160 895.26 2185.19 904.97 2160 980.53C2140.19 1039.97 2127.65 1058.76 2070 1080C1992.65 1108.5 1980 1080 1890 1080C1755 1080 1755 1080 1620 1080C1552.5 1080 1486 1121.99 1485 1080C1482.78 986.99 1647.25 913.24 1613.57 810C1579.75 706.35 1479.22 742.41 1350 666.23C1250.24 607.41 1164.48 624.72 1155.6 540C1143.71 426.6 1224.73 398.21 1308.46 270" stroke="rgba(68, 68, 68, 1)" stroke-width="2"></path><path d="M126.73 540C197.79 492.35 189.88 466.6 270 446.4C396.51 414.5 421.32 404.6 540 435.79C599.37 451.4 626.09 487.89 626.09 540C626.09 592.11 599.38 625.63 540 644.21C421.34 681.34 381.95 603.54 270 651.43C188.19 686.43 152.47 727.07 152.47 810C152.47 910.42 180.11 983.34 270 1018.13C373.87 1058.34 403.74 980.72 540 960C673.74 939.66 683.91 975.4 810 936C923.91 900.4 928.15 886.26 1020 810C1063.15 774.17 1053.11 711.82 1080 711.82C1105.15 711.82 1093.46 766.11 1124.08 810C1221.88 950.2 1349.44 1002.73 1336.83 1080C1327.4 1137.73 1208.41 1080 1080 1080C945 1080 945 1080 810 1080C675 1080 675 1080 540 1080C405 1080 405 1080 270 1080C135 1080 67.5 1147.5 0 1080C-67.5 1012.5 0 945 0 810C0 718.73 -34.37 700.69 0 627.46C28.99 565.69 62.79 582.88 126.73 540" stroke="rgba(68, 68, 68, 1)" stroke-width="2"></path><path d="M1890 385.71C1829.49 385.71 1762.94 469.27 1762.94 540C1762.94 597.85 1828.54 642.86 1890 642.86C1946.07 642.86 1998 596.82 1998 540C1998 468.25 1947.02 385.71 1890 385.71" stroke="rgba(68, 68, 68, 1)" stroke-width="2"></path><path d="M90 0C90 82.03 23.33 225 0 225C-21.67 225 -32.14 80.36 0 0C12.86 -32.14 90 -30.47 90 0" stroke="rgba(68, 68, 68, 1)" stroke-width="2"></path><path d="M768.17 270C768.17 208.55 786.99 135 810 135C833.51 135 861.21 210.4 861.21 270C861.21 295.79 834.73 305.78 810 305.78C788.21 305.78 768.17 293.94 768.17 270" stroke="rgba(68, 68, 68, 1)" stroke-width="2"></path><path d="M1890 144.64C1839.33 144.64 1786.15 45.68 1786.15 0C1786.15 -26.64 1838.07 0 1890 0C1938.22 0 1986.43 -25.8 1986.43 0C1986.43 46.52 1939.47 144.64 1890 144.64" stroke="rgba(68, 68, 68, 1)" stroke-width="2"></path><path d="M264.49 540C264.49 538.09 266.76 536.4 270 536.4C303.27 536.4 337.5 538.03 337.5 540C337.5 541.97 303.09 544.29 270 544.29C266.58 544.29 264.49 542.03 264.49 540" stroke="rgba(68, 68, 68, 1)" stroke-width="2"></path><path d="M1290.6 540C1290.6 500.01 1308.72 447.19 1350 447.19C1420.92 447.19 1515 505.34 1515 540C1515 571.03 1429.13 578.57 1350 578.57C1316.93 578.57 1290.6 565.7 1290.6 540" stroke="rgba(68, 68, 68, 1)" stroke-width="2"></path><path d="M0 722.54C20.67 722.54 73.06 759.29 73.06 810C73.06 913.91 18.74 1031.79 0 1031.79C-17.79 1031.79 0 920.89 0 810C0 766.27 -15.86 722.54 0 722.54" stroke="rgba(68, 68, 68, 1)" stroke-width="2"></path><path d="M1879.2 810C1881.59 804.25 1885.29 807.72 1890 803.57C2025.69 683.97 2079.82 560.59 2160 562.5C2214.82 563.81 2160 686.25 2160 810C2160 836.06 2174.85 841.77 2160 862.11C2076.28 976.77 2071.04 992.7 1962.86 1080C1936.04 1101.65 1926.43 1080 1890 1080C1832.63 1080 1776.78 1118.34 1775.25 1080C1771.38 983.34 1824.21 942.46 1879.2 810" stroke="rgba(68, 68, 68, 1)" stroke-width="2"></path><path d="M492.35 1080C492.35 1076.73 515.5 1069.57 540 1067.14C674.33 1053.82 678.43 1075.08 810 1048.5C948.43 1020.54 962.16 947.81 1080 958.06C1143.26 963.56 1172.2 1041.97 1172.2 1080C1172.2 1102.94 1126.1 1080 1080 1080C945 1080 945 1080 810 1080C675 1080 675 1080 540 1080C516.17 1080 492.35 1083.16 492.35 1080" stroke="rgba(68, 68, 68, 1)" stroke-width="2"></path></g><defs><mask id="SvgjsMask1034"><rect width="1920" height="1080" fill="#ffffff"></rect></mask></defs></svg>